<?xml version="1.0" standalone="no"?><!DOCTYPE svg PUBLIC "-//W3C//DTD SVG 1.1//EN" "http://www.w3.org/Graphics/SVG/1.1/DTD/svg11.dtd"><svg t="1611822791567" class="icon" viewBox="0 0 1024 1024" version="1.1" xmlns="http://www.w3.org/2000/svg" p-id="2935" xmlns:xlink="http://www.w3.org/1999/xlink" width="32" height="32"><defs><style type="text/css"></style></defs><path d="M512 213.2c41.2 0.2 74.6-33.2 74.6-74.6 0-41.2-33.4-74.6-74.6-74.6-41.2 0-74.6 33.4-74.6 74.6C437.4 179.8 470.8 213.2 512 213.2z" p-id="2936" fill="#1296db"></path><path d="M586.8 230 512 230l-74.8 0c-56.4 0-93.2 49.6-93.2 96.8L344 554c0 44 62 44 62 0L406 344l12 0 0 571.2c0 60.8 84 58.8 86 0L504 586l14 0 2 0 0 329.4c3.4 62.4 86 56.4 86-0.2L606 344l10 0 0 210c0 44 64 44 64 0L680 326.8C680 279.8 643 230 586.8 230z" p-id="2937" fill="#1296db"></path></svg>