<?xml version="1.0" standalone="no"?><!DOCTYPE svg PUBLIC "-//W3C//DTD SVG 1.1//EN" "http://www.w3.org/Graphics/SVG/1.1/DTD/svg11.dtd"><svg t="1611759144249" class="icon" viewBox="0 0 1024 1024" version="1.1" xmlns="http://www.w3.org/2000/svg" p-id="1292" xmlns:xlink="http://www.w3.org/1999/xlink" width="200" height="200"><defs><style type="text/css"></style></defs><path d="M307.3 113.8s-21.7-55 5.9-55.2c27.5-0.2 8.8 48.1 4.3 55.2s-10.2 0-10.2 0z" fill="#FFFFFF" p-id="1293"></path><path d="M312.8 119.5c-4.1 0-7.2-3.7-7.5-4.1l-0.2-0.3-0.1-0.3c-0.6-1.5-14.6-37.6-4.7-52.3 2.8-4.2 7.2-6.3 12.9-6.4h0.1c8.4 0 12.5 4.2 14.4 7.7 4.3 7.9 2.5 20.2 0.2 29.1-2.6 10.2-6.6 19.3-8.4 22.1-2.2 3.4-4.7 4.2-6.5 4.3 0 0.2-0.1 0.2-0.2 0.2z m-3.3-7c0.7 0.8 2.2 2 3.4 1.9 1 0 1.9-1.1 2.4-2 3.4-5.4 14.6-34 8-46.1-1.9-3.5-5.2-5.1-10.1-5.1-4 0-6.9 1.4-8.7 4.1-7 10.3 1.1 37.2 5 47.2z" fill="#333333" p-id="1294"></path><path d="M449.9 857.5l-10-4.3c0.2-0.6 23.9-56.2 5.1-101.2-9-21.4-26.4-37.2-51.7-46.9-36.8-14.1-60-34.2-68.8-59.6-13.2-38 7.3-80.1 26.6-112.6 31.3-52.7 6.4-155.2-27.3-233.5-36-83.5-16.3-178.2-15.4-182.2l10.6 2.3c-0.2 0.9-19.8 95.4 14.8 175.6 13.8 31.9 31.7 80.6 39.2 131.5 7.1 48.2 2.9 85.9-12.5 111.8-18.1 30.5-37.4 69.8-25.7 103.5 7.7 22.3 28.7 40.1 62.5 53 28.2 10.8 47.7 28.6 57.9 52.9 20.5 49.2-4.2 107.2-5.3 109.7z" fill="#333333" p-id="1295"></path><path d="M308.3 250.9m-65.3 0a65.3 65.3 0 1 0 130.6 0 65.3 65.3 0 1 0-130.6 0Z" fill="#CE302F" p-id="1296"></path><path d="M308.3 321.7c-39 0-70.8-31.7-70.8-70.8s31.7-70.8 70.8-70.8 70.8 31.7 70.8 70.8-31.8 70.8-70.8 70.8z m0-130.6c-33 0-59.9 26.9-59.9 59.9s26.9 59.9 59.9 59.9 59.9-26.9 59.9-59.9-26.9-59.9-59.9-59.9z" fill="#333333" p-id="1297"></path><path d="M364.6 414.4m-65.3 0a65.3 65.3 0 1 0 130.6 0 65.3 65.3 0 1 0-130.6 0Z" fill="#CE302F" p-id="1298"></path><path d="M364.6 485.2c-39 0-70.8-31.7-70.8-70.8s31.7-70.8 70.8-70.8 70.8 31.7 70.8 70.8-31.8 70.8-70.8 70.8z m0-130.6c-33 0-59.9 26.9-59.9 59.9s26.9 59.9 59.9 59.9 59.9-26.9 59.9-59.9-26.9-59.9-59.9-59.9z" fill="#333333" p-id="1299"></path><path d="M344 588.4m-65.3 0a65.3 65.3 0 1 0 130.6 0 65.3 65.3 0 1 0-130.6 0Z" fill="#CE302F" p-id="1300"></path><path d="M344 659.2c-39 0-70.8-31.7-70.8-70.8s31.7-70.8 70.8-70.8 70.8 31.7 70.8 70.8-31.8 70.8-70.8 70.8z m0-130.7c-33 0-59.9 26.9-59.9 59.9s26.9 59.9 59.9 59.9 59.9-26.9 59.9-59.9-26.9-59.9-59.9-59.9z" fill="#333333" p-id="1301" data-spm-anchor-id="a313x.7781069.0.i0"></path><path d="M429.9 735.6m-65.3 0a65.3 65.3 0 1 0 130.6 0 65.3 65.3 0 1 0-130.6 0Z" fill="#CE302F" p-id="1302"></path><path d="M429.9 806.3c-39 0-70.8-31.7-70.8-70.8 0-39 31.7-70.8 70.8-70.8s70.8 31.7 70.8 70.8c0 39.1-31.8 70.8-70.8 70.8z m0-130.6c-33 0-59.9 26.9-59.9 59.9s26.9 59.9 59.9 59.9 59.9-26.9 59.9-59.9-26.9-59.9-59.9-59.9z" fill="#333333" p-id="1303"></path><path d="M335.8 140h-53.4c-6 0-10.9-4.9-10.9-10.9s4.9-10.9 10.9-10.9h53.4c6 0 10.9 4.9 10.9 10.9s-4.9 10.9-10.9 10.9z" fill="#F8B739" p-id="1304"></path><path d="M335.8 145.5h-53.4c-9 0-16.3-7.3-16.3-16.3s7.3-16.3 16.3-16.3h53.4c9 0 16.3 7.3 16.3 16.3 0 8.9-7.3 16.3-16.3 16.3z m-53.4-21.8c-3 0-5.4 2.4-5.4 5.4 0 3 2.4 5.4 5.4 5.4h53.4c3 0 5.4-2.4 5.4-5.4 0-3-2.4-5.4-5.4-5.4h-53.4z" fill="#333333" p-id="1305"></path><path d="M455.4 877.8h-23.2V863c0-6.4 5.2-11.6 11.6-11.6 6.4 0 11.6 5.2 11.6 11.6v14.8z" fill="#F8B739" p-id="1306"></path><path d="M457.6 880H430v-17c0-7.6 6.2-13.8 13.8-13.8 7.6 0 13.8 6.2 13.8 13.8v17z m-23.2-4.4h18.8V863c0-5.2-4.2-9.4-9.4-9.4s-9.4 4.2-9.4 9.4v12.6z" fill="#333333" p-id="1307"></path><path d="M472.2 943.3s-9.6 6-29.8 6c-20.3 0-26.9-6-26.9-6l16.8-65.4h23.2l16.7 65.4z" fill="#F8B739" p-id="1308"></path><path d="M442.2 951.5c-20.7 0-27.9-6.3-28.2-6.6l-1-0.9 17.5-68.4h26.6l17.6 68.6-1.4 0.9c-0.4 0.3-10.4 6.3-31 6.3 0 0.1 0 0.1-0.1 0.1z m-24.2-9.2c2.5 1.5 9.6 4.7 24.2 4.7h0.2c15.1 0 24.1-3.5 27.3-5l-15.9-62H434l-16 62.3z" fill="#333333" p-id="1309"></path><path d="M432.2 950.4h-0.3c-1.2-0.2-2.1-1.3-1.9-2.5l7.3-54.8c0.2-1.2 1.3-2.1 2.5-1.9 1.2 0.2 2.1 1.3 1.9 2.5l-7.3 54.8c-0.1 1.1-1.1 1.9-2.2 1.9zM450 935.1c-1.2 0-2.1-0.9-2.2-2.1l-1.8-28.2c-0.1-1.2 0.9-2.2 2.1-2.3 1.2-0.1 2.2 0.9 2.3 2.1l1.8 28.2c0.1 1.2-0.9 2.2-2.1 2.3h-0.1z" fill="#333333" p-id="1310"></path><path d="M277.5 237.8c-2.7 0-4.5-0.5-5.6-1.6-1.1-1.1-1.6-3-1.6-5.6s0.5-4.6 1.6-5.9c1.1-1.3 3-1.9 5.6-1.9 0.3 0 0.4-0.2 0.3-0.7-0.1-0.5-0.2-0.9-0.2-1.3 0-1.9 0.9-3.5 2.7-4.9 1.8-1.4 3.6-2.1 5.4-2.1 0.9 0 1.8 0.2 2.7 0.5 0.8 0.3 1.5 0.8 2 1.3s1.3 1.5 2.2 2.9c0.9 1.4 1.5 2.3 1.7 2.8 0.2 0.4 0.3 1.3 0.3 2.4s0.2 2.3 0.7 3.4c0.5 1.1 1.2 1.9 2 2.6 0.8 0.7 1.3 1.1 1.3 1.3 0 0.3-0.5 1.9-1.6 4.8s-1.7 4.5-1.9 4.8c-0.2 0.3-0.3 0.4-0.5 0.4s-0.5-0.1-0.8-0.2c-0.4-0.1-0.9-0.2-1.5-0.2-2 0-4 0.9-6 2.6-2 1.8-3.1 3.5-3.1 5.2 0 1.7 0.6 3.3 1.8 4.9 1.2 1.6 2.5 3.7 4 6.3 0.9 1.4 1.8 2.3 2.8 2.7 0.7 0.2 1 0.7 1 1.6v18.4c0 2-0.5 3.4-1.5 4.2-1 0.7-2.8 1.1-5.4 1.1-2.6 0-4.4-0.3-5.3-1-0.9-0.7-1.4-2.1-1.4-4.2v-16.2c0-0.8-0.3-1.3-0.8-1.3-0.2 0-0.4 0.1-0.6 0.3-0.7 0.7-1.6 1.1-2.7 1.1s-2.4-0.8-4-2.4c-1.6-1.6-2.4-3.4-2.4-5.3 0-2.8 1.4-5.6 4.2-8.5 1.5-1.6 3.4-3.7 5.5-6.4 2.2-2.6 3.3-4.2 3.3-4.8 0-0.5-0.4-0.8-1.1-0.8h-3.1z m20.8 10.8c0.4 1.4 0.9 2.4 1.5 3.1 0.1 0.1 0.1 0.2 0.1 0.4 0 0.1-0.2 0.3-0.5 0.4-2.6 1.1-4.2 3.3-4.9 6.5-0.1 0.5-0.4 0.7-0.9 0.7-1 0-1.9-0.8-2.8-2.4-0.9-1.6-2-3.4-3.4-5.3-0.8-1.2-1.3-2.4-1.3-3.5s0.7-2.3 2.1-3.4c1.4-1.1 2.7-1.7 4.1-1.7 1.3 0 2.6 0.7 3.8 2.1 1.3 1.3 2 2.4 2.2 3.1z m43.6 28.3c0 3.9-0.7 6.6-2 8.1-1.4 1.5-3.7 2.2-7.1 2.2H306c-3.4 0-5.8-0.7-7.1-2.2-1.4-1.5-2-4.2-2-8.1v-12.5c0-3.9 0.7-6.6 2.1-8.1 1.4-1.5 3.7-2.2 7.1-2.2h26.8c3.3 0 5.7 0.7 7.1 2.2 1.4 1.5 2.1 4.2 2.1 8.1v12.5z m-4.6-61.2c3.6 0 5.3 2.1 5.3 6.3 0 4.3-1.8 6.5-5.3 6.5h-34.6c-3.6 0-5.3-2.1-5.3-6.4 0-4.3 1.8-6.4 5.3-6.4h34.6z m-6 15.4c2.8 0 4.9 0.3 6.1 0.8 1.3 0.5 2.1 1.5 2.5 2.9 0.4 1.4 0.6 3.6 0.6 6.7 0 4.8-0.7 7.7-2.2 8.8-1.4 1-3.8 1.6-7 1.6h-21.8c-3.2 0-5.6-0.5-7.1-1.6-1.5-1-2.2-3.5-2.2-7.5 0-3.9 0.2-6.6 0.6-8 0.4-1.4 1.2-2.3 2.5-2.9 1.3-0.5 3.3-0.8 6.2-0.8h21.8z m-18.4 34.8c0.4 0 0.6-0.1 0.7-0.3 0.1-0.2 0.2-0.7 0.2-1.3 0-0.7 0-1.1-0.1-1.4-0.1-0.2-0.3-0.4-0.7-0.4h-2.8c-0.4 0-0.6 0.1-0.7 0.3-0.1 0.2-0.2 0.7-0.2 1.4s0.1 1.2 0.2 1.4c0.1 0.2 0.4 0.3 0.7 0.3h2.7z m0 11.6c0.4 0 0.6-0.1 0.7-0.3 0.1-0.2 0.2-0.7 0.2-1.4s-0.1-1.2-0.2-1.4c-0.1-0.2-0.3-0.3-0.7-0.3h-2.8c-0.4 0-0.6 0.1-0.7 0.3-0.1 0.2-0.2 0.7-0.2 1.4s0.1 1.2 0.2 1.4c0.1 0.2 0.4 0.3 0.7 0.3h2.8z m12.7-34.6c1 0 1.5-0.5 1.5-1.6s-0.5-1.6-1.5-1.6h-10.3c-1 0-1.6 0.5-1.6 1.6s0.5 1.6 1.6 1.6h10.3z m2.4 23c0.4 0 0.7-0.1 0.8-0.4 0.1-0.3 0.2-0.7 0.2-1.3 0-0.6-0.1-1.1-0.2-1.3-0.1-0.2-0.4-0.4-0.8-0.4h-2.7c-0.4 0-0.6 0.1-0.7 0.3-0.1 0.2-0.2 0.7-0.2 1.4s0.1 1.2 0.2 1.4c0.1 0.2 0.4 0.3 0.7 0.3h2.7z m0 11.6c0.4 0 0.7-0.1 0.8-0.3 0.1-0.2 0.2-0.7 0.2-1.4s-0.1-1.2-0.2-1.4c-0.1-0.2-0.4-0.3-0.8-0.3h-2.7c-0.4 0-0.6 0.1-0.7 0.3-0.1 0.2-0.2 0.7-0.2 1.3 0 0.7 0.1 1.1 0.2 1.4 0.1 0.2 0.4 0.4 0.7 0.4h2.7zM394.1 437.3c2.5 0 4.1 0.4 4.9 1.1 0.7 0.8 1.1 2.2 1.1 4.4 0 2.4-0.3 3.9-1 4.6-0.7 0.7-2.3 1-4.9 1h-58.8c-2.4 0-4-0.3-4.8-0.9-0.8-0.6-1.2-2-1.2-4.3s0.3-3.8 0.9-4.7c0.6-0.8 2.3-1.3 5.1-1.3h21c0.6 0 0.9-0.1 1-0.3 0.1-0.2 0.2-0.6 0.2-1.2s-0.1-1-0.2-1.1c-0.2-0.2-0.5-0.3-1.1-0.3h-19.5c-0.8 0-1.5-0.1-2-0.4-0.5-0.3-0.8-0.5-0.8-0.8 0-0.3 0.3-0.3 0.9-0.2 0.6 0.2 1.2 0.2 1.9 0.2 1.6 0 3.6-0.7 6-2s4.2-3.1 5.4-5.3c0.7-1.2 1.8-1.8 3.2-1.8h5.2c0.4 0 0.7-0.1 0.8-0.2 0.1-0.2 0.2-0.4 0.2-0.9 0-0.4 0-0.7-0.1-0.9-0.1-0.2-0.4-0.3-0.9-0.3H349c-0.9 0-1.6 0.5-2.1 1.4-1.2 2.5-2.8 4.2-4.9 5.4-2.1 1.1-3.8 1.7-5.3 1.7-1.4 0-3-0.7-4.7-2.1-1.7-1.4-2.5-3.1-2.5-5.2 0-1.3 0.4-2.5 1.2-3.4 3.4-4.5 6-8.3 7.8-11.3 0.9-1.5 2.4-2.3 4.4-2.3 1.5 0 3 0.5 4.6 1.4 1.5 0.9 2.7 1.9 3.4 2.9 0.3 0.6 0.7 1 1.1 1.2 0.4 0.2 1.3 0.3 2.6 0.3s2.2-0.1 2.5-0.2c0.4-0.2 0.6-0.5 0.6-0.9 0-1.5 0.6-2.6 1.9-3.2 1.3-0.6 3.2-0.9 5.8-0.9 2.6 0 4.6 0.4 6 1.3 1.4 0.8 2.1 1.9 2.1 3.2 0 0.6 0.4 0.9 1.3 0.9H392c3.8 0 5.6 1.7 5.6 5s-1.9 5-5.6 5h-17.3c-0.5 0-0.8 0.1-0.9 0.2-0.1 0.1-0.2 0.4-0.2 0.9s0.1 0.8 0.2 1c0.1 0.2 0.4 0.2 0.9 0.2h16c2.6 0 4.2 0.3 4.8 0.9 0.6 0.6 0.9 2 0.9 4.2s-0.4 3.6-1.1 4.2c-0.8 0.6-2.3 0.9-4.6 0.9h-15.8c-0.5 0-0.9 0.1-1 0.3-0.2 0.2-0.2 0.6-0.2 1.2s0.1 1 0.2 1.2c0.2 0.2 0.5 0.2 1.1 0.2h19.1z m0.3-34.5c0 1.8-0.6 3.3-1.7 4.6-1.2 1.3-2.4 2-3.8 2h-10.7c-0.9 0-1.5-0.1-1.9-0.3-0.4-0.2-0.9-0.8-1.6-1.8-0.7-1-1.9-1.8-3.5-2.5s-3.5-1.1-5.7-1.1c-5.3 0-8.7 1.4-10.2 4.3-0.4 0.7-0.8 1.1-1.2 1.1-0.4 0-1-0.4-1.6-1.1-0.7-0.7-1.9-1.7-3.7-2.9-1.8-1.2-3.9-1.8-6.2-1.8s-3.9 0.6-4.9 1.7c-0.6 0.6-1.1 0.9-1.6 0.9-1.3 0-2-1.8-2-5.5v-16.9c0-2 0.8-3.7 2.5-5.1 1.7-1.4 3.9-2.1 6.8-2.1h41.3c3.1 0 5.5 0.7 7.1 2 1.7 1.3 2.5 3.2 2.5 5.5v19z m-16.8-13.3c0.6 0 1-0.1 1.2-0.4 0.2-0.2 0.3-0.7 0.3-1.4s-0.1-1.1-0.3-1.3c-0.2-0.2-0.6-0.2-1.3-0.2h-25.9c-1 0-1.6 0.7-1.6 2 0 0.8 0.5 1.3 1.4 1.3h26.2z m0 9.8c1 0 1.5-0.4 1.5-1.2 0-0.8-0.1-1.3-0.3-1.5-0.2-0.2-0.6-0.3-1.3-0.3h-25.9c-0.6 0-1 0.1-1.3 0.4-0.2 0.3-0.3 0.7-0.3 1.4s0.5 1.1 1.4 1.1h26.2zM377.5 557.4c2.9 0 4.7 0.5 5.5 1.6 0.8 1 1.2 2.8 1.2 5.3s-0.5 4.3-1.4 5.4c-0.9 1.1-2.3 1.7-4.2 1.7-1.9 0-3.1-0.1-3.6-0.2s-0.9-0.4-1.1-0.8c-1-1.5-2.4-2.6-4.1-3.1-1.8-0.6-4.1-0.9-7.1-0.9h-30.1c-3.1 0-5.6 0.3-7.4 1-1.8 0.7-3.1 1.8-3.9 3.4-0.2 0.3-0.5 0.5-1.1 0.7-0.6 0.1-1.8 0.2-3.5 0.2-1.8 0-3.1-0.6-4.1-1.8-0.9-1.2-1.4-3-1.4-5.3s0.5-4.1 1.5-5.3 2.5-1.9 4.4-1.9h19.7c0.8 0 1.2-0.4 1.2-1.1 0-3 3.7-4.5 11-4.5 2.5 0 4.4 0.4 5.7 1.1 1.3 0.8 2 2 2.2 3.6 0.1 0.6 0.5 0.9 1.3 0.9h19.3z m5.6 59.8c0 3-0.6 5.1-1.9 6.4-1.3 1.3-3.4 2-6.3 2h-9.8c-2.1 0-3.6-0.5-4.6-1.5-1-1-1.5-2.7-1.5-5s0.5-4 1.5-5.2c1-1.2 2.5-1.8 4.4-1.8h3.3c0.5 0 0.8-0.1 1-0.3 0.2-0.2 0.3-0.5 0.3-1.1v-5.9c0-2.4-1.1-4.2-3.3-5.7-2.2-1.4-4.8-2.2-7.8-2.2h-19.2c-4.2 0-7.3 0.6-9.3 1.9-1.9 1.3-2.9 3.6-2.9 7v7.7c0 2.4 0.5 4.3 1.5 5.6 0.6 0.9 0.9 1.8 0.9 2.8 0 1-0.7 1.8-2.1 2.5-1.4 0.7-3.4 1.1-6.2 1.1s-4.7-0.5-6-1.4c-1.3-0.9-1.9-2.6-1.9-4.9v-24.7c0-1.8 0.2-3.2 0.6-4.2 0.4-1 1.3-2 2.7-3 1.4-0.9 2.4-1.4 2.9-1.4s1.2 0.5 1.8 1.6c1.5 2.5 5.1 3.8 11.1 3.8h30.1c3.2 0 5.7-0.3 7.5-0.9 1.8-0.6 3.1-1.8 3.9-3.5 0.5-1.1 1.3-1.6 2.4-1.6 0.8 0 1.9 0.5 3.1 1.5 1.2 1 2.1 2 2.7 3.1 0.6 1.1 0.9 2.7 0.9 4.7v22.6z m-10.8-34.5c0 2.5-0.7 4.1-2.2 5-1.4 0.9-3.9 1.3-7.4 1.3h-30.1c-3.4 0-5.9-0.4-7.4-1.3s-2.2-2.6-2.2-5v-7.2c0-2.5 0.7-4.1 2.2-5 1.5-0.9 3.9-1.3 7.3-1.3h30.1c3.4 0 5.8 0.4 7.3 1.3s2.2 2.6 2.2 5v7.2z m-5.3 25.2c0 1.1-0.7 1.6-2 1.6-2.7 0-4.7 0.7-6.2 2.2-1.5 1.5-2.2 3.6-2.4 6.4-0.1 0.7-0.2 1.2-0.5 1.5-0.3 0.3-0.9 0.4-1.8 0.4h-14.8c-3.4 0-5.9-0.4-7.4-1.3s-2.2-2.6-2.2-5V606c0-2.5 0.7-4.1 2.2-5 1.5-0.9 3.9-1.3 7.3-1.3h19.2c2.5 0 4.5 0.5 6.1 1.5 1.6 1 2.4 2.2 2.4 3.8v2.9z m-11-27.8c0.6 0 0.9-0.4 0.9-1.3s-0.3-1.3-0.9-1.3h-16.9c-0.5 0-0.8 0.4-0.8 1.3s0.3 1.3 0.8 1.3H356z m-4.6 30.6c0.5 0 0.8-0.1 0.9-0.4 0.1-0.3 0.2-0.7 0.2-1.3 0-0.6-0.1-1-0.2-1.3-0.1-0.3-0.4-0.4-0.9-0.4h-6.9c-0.5 0-0.8 0.1-0.9 0.4-0.1 0.3-0.2 0.7-0.2 1.3 0 0.6 0.1 1 0.2 1.3 0.1 0.3 0.4 0.4 0.9 0.4h6.9zM416.3 753.2c0.9 0 1.6 0.1 1.8 0.4 0.3 0.3 0.4 0.9 0.4 1.8s-0.5 2.5-1.4 4.8c-0.9 2.2-2 4.3-3.4 6.3-1.3 1.9-2.5 3.2-3.4 3.7-0.9 0.5-2.2 0.8-3.6 0.8-1.5 0-3.4-0.7-5.8-2.2-2.4-1.4-3.5-3-3.5-4.7 0-0.8 0.2-1.6 0.6-2.5 0.4-0.9 1.3-2.4 2.6-4.5s2.1-3.3 2.4-3.6c0.3-0.3 0.8-0.4 1.5-0.4h11.8z m5.9-54.5c0.9 0 1.5 0.1 1.9 0.3 0.4 0.2 0.5 0.4 0.5 0.8 0 0.3 0 0.7-0.1 1-0.3 1.3-0.4 2.8-0.4 4.4 0 1.6 0.3 3.2 0.8 4.8 0.5 1.5 1.2 2.6 2.1 3.2 0.9 0.6 1.3 1.1 1.3 1.6s-0.5 1.1-1.4 1.7c-2 1.4-3.1 3.4-3.1 6 0 1.6 0.4 3.1 1.3 4.5 0.3 0.5 0.4 1.2 0.4 2.3v19c0 0.9-0.1 1.5-0.3 1.9-0.2 0.4-0.7 0.5-1.7 0.5H407c-2.1 0-3.9-0.7-5.3-2.2-1.4-1.4-2-3.3-2-5.6V707c0-5.5 2.6-8.3 7.8-8.3h14.7z m-7.2 19.8c1.3 0 2-0.2 2.3-0.5 0.3-0.4 0.4-1.1 0.4-2.1s-0.2-1.7-0.5-2c-0.3-0.3-1.1-0.4-2.2-0.4s-1.9 0.1-2.2 0.4c-0.3 0.3-0.5 0.9-0.5 2 0 1 0.1 1.7 0.4 2.1 0.4 0.3 1.1 0.5 2.3 0.5z m0 18.4c1.1 0 1.8-0.2 2.2-0.6 0.4-0.4 0.5-1.1 0.5-2.2 0-1-0.1-1.8-0.4-2.2-0.3-0.4-1-0.6-2.3-0.6-1.2 0-2 0.2-2.3 0.6-0.3 0.4-0.4 1.1-0.4 2.2s0.2 1.8 0.5 2.2c0.4 0.5 1.1 0.6 2.2 0.6z m10.6 16.4c1.6 0 2.5 0.1 2.7 0.2 1 0.5 1.8 0.9 2.4 1.1 0.6 0.2 1 0.6 1.2 1.2 0.2 0.5 0.4 1.8 0.5 3.7 0.2 1.9 0.2 3.8 0.2 5.6 0 1.8-0.6 3-1.9 3.8-1.3 0.8-3.3 1.1-6.2 1.1-4.1 0-6.1-1.3-6.1-3.8 0-0.8 0.2-1.8 0.7-2.8 1.3-2.8 2.2-5.4 2.8-7.9 0.2-1 0.5-1.6 0.9-1.8 0.5-0.3 1.4-0.4 2.8-0.4z m34.4-54.9c2 0 3.6 0.4 4.9 1.1 1.3 0.7 2.2 1.6 2.8 2.8 0.5 1.2 0.8 2.7 0.8 4.6 0 3.1-0.2 6.6-0.5 10.4-0.4 3.9-1.2 6.5-2.5 7.8-1.3 1.3-3.5 2-6.6 2h-7.6c-2.1 0-3.6-0.5-4.6-1.4-1-0.9-1.5-2.5-1.5-4.9 0-2.3 0.5-3.9 1.5-4.6 1-0.8 2.7-1.1 5.1-1.1 0.7 0 1.2-0.1 1.5-0.2 0.3-0.2 0.4-0.6 0.4-1.3 0-0.7-0.5-1-1.6-1h-2c-4.9 0-7.4 2.7-7.4 8.2l0.2 2.7c0 1.1-1.1 2.5-3.3 4.1-2.2 1.6-4 2.5-5.5 2.5s-3.1-0.8-4.9-2.4c-1.8-1.6-2.7-3.3-2.7-5.1 0-1.8 0.5-3.1 1.6-4 3-2.5 4.7-4.1 5.3-4.9 0.5-0.8 0.8-1.3 0.8-1.6 0-0.3-0.5-0.4-1.6-0.4-2.2 0-3.7-0.5-4.5-1.6-0.8-1.1-1.2-3-1.2-5.6 0-2.6 0.4-4.3 1.1-5.1 0.7-0.8 2.1-1.2 4.2-1.2H460z m7.9 47.2c0 4.6-2.5 6.9-7.4 6.9h-24.8c-2.1 0-3.8-0.6-5.1-1.8-1.3-1.2-1.9-2.8-1.9-4.9v-12.2c0-1.3 0.4-1.9 1.3-1.9 0.3 0 0.8 0.1 1.5 0.4 0.7 0.3 1.5 0.4 2.5 0.4 2.5 0 5.4-1.4 8.5-4.3 0.5-0.5 1-0.7 1.5-0.7 0.4 0 1.1 0.3 2.1 0.9 1 0.6 3 0.9 6 0.9h6.3c0.9 0 2.1-0.1 3.6-0.3 1.4-0.2 2.5-0.4 3.1-0.5 0.6-0.2 1.1-0.2 1.4-0.2 1 0 1.5 0.8 1.5 2.4v14.9z m-25 9.2c1.1 0 1.9 0.8 2.4 2.4 0.7 3 2 6 3.9 8.9 0.2 0.4 0.3 0.7 0.3 0.9 0 0.7-0.7 1.3-2.2 2-1.5 0.6-3.2 0.9-5.3 0.9-2 0-3.5-0.5-4.3-1.4-0.8-0.9-1.3-2.2-1.5-3.8l-0.6-4.9c-0.2-1.1-0.2-2.1-0.2-2.9 0-0.8 0.2-1.4 0.5-1.6 0.4-0.3 1-0.4 2-0.4h5z m9.6-14.3c1 0 1.6-0.5 1.6-1.4 0-1-0.1-1.6-0.4-1.8-0.2-0.3-0.6-0.4-1.2-0.4h-9.3c-0.8 0-1.2 0.6-1.2 1.8 0 1.2 0.4 1.8 1.2 1.8h9.3z m10.3 14.6c0.8 0 1.5 0.2 2.1 0.7 0.6 0.5 1.4 1.7 2.5 3.5s1.6 3.3 1.6 4.5c0 1.8-1.2 3.5-3.6 4.9-2.4 1.4-4.3 2.2-5.8 2.2-2.4 0-4.8-2-7.3-6s-3.7-6.7-3.7-7.9c0-1.3 0.6-1.9 1.9-1.9h12.3z" fill="#F8B739" p-id="1311"></path><path d="M280.1 125.7c-10.2-1.5-69.9-23.3-47.4-48.5s55.6 39.2 55.6 39.2 2.1 10.8-8.2 9.3z" fill="#FFFFFF" p-id="1312"></path><path d="M288.9 126.2c-1.5 1.5-4.3 3.2-9.2 2.5-4.2-0.6-15.8-4.3-27.3-10.1-10.1-5.1-22.9-13.4-26.7-23.8-1.6-4.7-2.2-11.9 4.5-19.6l0.1-0.1c4.7-5.2 10.1-7.5 16.3-6.7 21.6 2.7 43.5 44.8 44.5 46.6l0.2 0.4 0.1 0.5c0.1 0.7 1.1 6.4-2.3 10.2 0 0-0.1 0.1-0.2 0.1z m-43-51.7c-4-0.5-7.5 1-10.8 4.7-4 4.5-5.2 8.9-3.5 13.5 5.8 15.9 41.3 28.7 49 29.9 1.3 0.2 3 0.2 3.8-0.6 1-1.1 1.1-3.4 0.9-4.7-6.1-11.7-24.4-40.9-39.4-42.8z" fill="#333333" p-id="1313"></path><path d="M859 849.1l4.1-12.7c-0.7-0.2-71.2-23.4-97.4-77.1-12.5-25.6-13-54.5-1.5-85.7 16.8-45.4 17-83 0.7-111.7-24.4-42.9-79.8-58.1-125.4-66.5-73.9-13.7-148.3-119.5-193.3-214C398.3 180.7 295 122.3 290.6 119.8l-6.5 11.7c1 0.6 104 58.9 150.1 155.6 18.3 38.5 48.7 94.5 89.6 142.5 38.7 45.6 76.9 72.1 113.3 78.9 42.7 7.9 94.6 21.9 116.2 60 14.3 25.1 13.7 58.9-1.6 100.5-12.8 34.8-12.2 67.2 2 96.2 28.7 58.9 102.2 82.9 105.3 83.9z" fill="#333333" p-id="1314"></path><path d="M414 228.1m-80.1 0a80.1 80.1 0 1 0 160.2 0 80.1 80.1 0 1 0-160.2 0Z" fill="#CE302F" p-id="1315"></path><path d="M356.8 293.4c-36-31.5-39.6-86.5-8.1-122.5s86.5-39.6 122.5-8.1 39.6 86.5 8.1 122.5-86.5 39.6-122.5 8.1z m8.8-10.1c30.5 26.7 77 23.6 103.6-6.8 26.7-30.5 23.6-77-6.8-103.6-30.5-26.7-77-23.6-103.6 6.8-26.8 30.5-23.7 77 6.8 103.6z" fill="#333333" p-id="1316"></path><path d="M519.3 412.2m-80.1 0a80.1 80.1 0 1 0 160.2 0 80.1 80.1 0 1 0-160.2 0Z" fill="#CE302F" p-id="1317"></path><path d="M462.1 477.5C426.1 446 422.5 391 454 355s86.5-39.6 122.5-8.1 39.6 86.5 8.1 122.5-86.5 39.7-122.5 8.1z m8.8-10c30.5 26.7 77 23.6 103.6-6.8 26.7-30.5 23.6-77-6.8-103.6-30.5-26.7-77-23.6-103.6 6.8-26.7 30.4-23.7 76.9 6.8 103.6z" fill="#333333" p-id="1318"></path><path d="M696.5 533.9m-80.1 0a80.1 80.1 0 1 0 160.2 0 80.1 80.1 0 1 0-160.2 0Z" fill="#CE302F" p-id="1319"></path><path d="M639.3 599.1c-36-31.5-39.6-86.5-8.1-122.5s86.5-39.6 122.5-8.1 39.6 86.5 8.1 122.5c-31.6 36.1-86.5 39.7-122.5 8.1z m8.8-10c30.5 26.7 77 23.6 103.6-6.8 26.7-30.5 23.6-77-6.8-103.6-30.5-26.7-77-23.6-103.6 6.8-26.7 30.4-23.7 76.9 6.8 103.6z" fill="#333333" p-id="1320"></path><path d="M762.7 732.1m-80.1 0a80.1 80.1 0 1 0 160.2 0 80.1 80.1 0 1 0-160.2 0Z" fill="#CE302F" p-id="1321"></path><path d="M705.5 797.4c-36-31.5-39.6-86.5-8.1-122.5s86.5-39.6 122.5-8.1 39.6 86.5 8.1 122.5-86.5 39.7-122.5 8.1z m8.8-10c30.5 26.7 77 23.6 103.6-6.8 26.7-30.5 23.6-77-6.8-103.6-30.5-26.7-77-23.6-103.6 6.8-26.7 30.4-23.6 76.9 6.8 103.6z" fill="#333333" p-id="1322"></path><path d="M289.4 163.8l43.2-49.2c4.8-5.5 4.3-14-1.2-18.8-5.5-4.8-14-4.3-18.8 1.2l-43.2 49.2c-4.8 5.5-4.3 14 1.2 18.8 5.5 4.8 14 4.3 18.8-1.2z" fill="#F8B739" p-id="1323"></path><path d="M266.2 170c-8.3-7.3-9.1-19.9-1.9-28.2l43.2-49.2c7.3-8.3 19.9-9.1 28.2-1.9 8.3 7.3 9.1 19.9 1.9 28.2l-43.2 49.2c-7.2 8.4-19.9 9.2-28.2 1.9z m8.2-19.4c-2.4 2.8-2.1 7 0.6 9.4 2.8 2.4 7 2.1 9.4-0.6l43.2-49.2c2.4-2.8 2.1-7-0.6-9.4-2.8-2.4-7-2.1-9.4 0.6l-43.2 49.2z" fill="#333333" p-id="1324"></path><path d="M859.6 858.7c-5.9-5.2-6.5-14.2-1.3-20.1 5.2-5.9 14.2-6.5 20.1-1.3l13.7 12-18.8 21.4-13.7-12z" fill="#F8B739" p-id="1325"></path><path d="M857.8 860.7c-7-6.1-7.7-16.9-1.6-23.9s16.9-7.7 23.9-1.6l15.7 13.8-22.3 25.5-15.7-13.8z m30.5-11.2l-11.7-10.2c-4.8-4.2-12.1-3.7-16.3 1.1s-3.7 12.1 1.1 16.3l11.7 10.2 15.2-17.4z" fill="#333333" p-id="1326"></path><path d="M873.3 870.7l18.8-21.4 73.9 37.4s0.2 11.1-16.2 29.7-29.7 22.6-29.7 22.6l-46.8-68.3z" fill="#F8B739" p-id="1327"></path><path d="M951.9 918.1c-16.7 19-30.3 23.3-30.9 23.5l-1.9 0.6-49.1-71.7 21.5-24.6 77.2 39.1v1.6c0 0.5 0 12.3-16.7 31.4l-0.1 0.1z m-59.1-65.4l-16 18.3 44.4 64.8c4-1.8 14.4-7.3 26.6-21.2 0.1-0.1 0.1-0.1 0.1-0.2 11.8-13.5 14.6-22.7 15.2-26.2l-70.3-35.5z" fill="#333333" p-id="1328"></path><path d="M955.6 908.4l-56.4-37.6c-1.3-0.8-1.6-2.5-0.7-3.7 0.8-1.3 2.5-1.6 3.7-0.7l56.4 37.6c1.3 0.8 1.6 2.5 0.7 3.7-0.1 0.1-0.2 0.2-0.2 0.3-0.9 1-2.5 1.2-3.5 0.4zM930.4 912.1c-1.1 1-2.8 1.1-3.8 0L902 887.6c-1-1.1-1.1-2.8 0-3.8s2.8-1.1 3.8 0l24.6 24.5c1 1 1.1 2.6 0.1 3.7-0.1 0-0.1 0-0.1 0.1z" fill="#333333" p-id="1329"></path><path d="M426.9 188c0.4 0.7 0.7 1 0.9 0.9 0.2-0.1 0.4-0.3 0.6-0.7 0.3-0.4 0.7-0.8 1.4-1.1 2.3-1.3 4.9-1.6 7.8-1 2.9 0.7 5 2.1 6.3 4.2 0.7 1.2 1.1 2.6 1.2 4.2 0.1 1.6-0.2 4.2-0.8 7.6-0.6 3.4-1.4 6.6-2.4 9.6-0.3 1-0.2 1.8 0.2 2.5l10.1 17.4c2 3.5 2.8 6.5 2.3 8.9-0.5 2.4-2.3 4.6-5.4 6.4l-10.7 6.2c-2.2 1.3-4.3 1.5-6.5 0.9-2.1-0.7-3.9-2.3-5.4-4.8-2.9-5-1.7-9.1 3.6-12.2 0.9-0.6 1.4-1.1 1.5-1.4 0.1-0.3 0-0.8-0.3-1.3-0.3-0.6-0.6-0.8-1-0.8-0.3 0-1 0.3-1.9 0.8-2.9 1.7-4.9 3.6-6 5.6-1.1 2-1.2 4.4-0.5 7.1 0.3 1.2 0.3 2.3-0.1 3.3-0.4 1.1-2 3.5-5.1 7.3-3 3.8-6.2 7.4-9.5 10.7-3.3 3.3-5.8 5.4-7.6 6.5-3.1 1.8-5.8 2.1-8.1 0.8-2.3-1.2-4.1-3-5.4-5.1-2.4-4-0.8-8.4 4.7-13.1 2.8-2.3 5.7-5 8.5-8 2.9-3 5.3-5.8 7.1-8.4 1.9-2.6 2.8-3.9 2.8-4.1 0-0.2 0-0.3-0.1-0.5s-0.5-0.4-1.1-0.6c-0.6-0.2-1.1-0.3-1.3-0.1-0.3 0.2-0.5 0.4-0.8 0.7-3.3 4.6-7 8.9-11.2 13.1-4.2 4.1-7 6.6-8.5 7.5-2.2 1.3-4.2 1.4-6.2 0.4-2-1-3.7-2.7-5.1-5.2-2.5-4.3-1.1-8 4.3-11.2 0.6-0.3 0.9-0.6 0.9-0.8 0.1-0.2 0-0.5-0.2-0.8l-14.4-24.8c-1.7-2.9-2.1-5.8-1.3-8.6 0.8-2.9 2.8-5.2 6-7.1l6-3.5c0.5-0.3 0.8-0.6 0.9-0.8 0.1-0.2 0-0.6-0.2-1.1-0.9-2.9-0.9-5.2-0.1-6.9 0.8-1.7 2.3-3.2 4.6-4.6 2.3-1.3 4.2-2.3 5.8-2.9 1.6-0.6 3-0.8 4.2-0.8 1.2 0.1 2.1 0.4 2.8 1 0.7 0.6 1.3 1.3 1.8 2.2 0.5 0.9 0.9 1.4 1.1 1.4 0.2 0 0.4 0 0.8-0.2l9.7-5.7c3.1-1.8 5.9-2.5 8.3-2 2.4 0.4 4.4 2 5.9 4.6l5.1 8.4z m-20.3 8.3c0.8-0.5 1.2-0.8 1.3-1.1 0.1-0.3 0-0.7-0.5-1.5-0.4-0.7-0.8-1.1-1-1.1-0.3 0-0.8 0.2-1.6 0.6L384.7 205c-0.7 0.4-1.1 0.8-1.1 1 0 0.2 0.1 0.7 0.5 1.4s0.7 1.1 0.9 1.1c0.2 0.1 0.7-0.1 1.4-0.5l20.2-11.7z m6.4 10.9c0.7-0.4 1.1-0.7 1.3-0.9 0.2-0.2 0.1-0.7-0.3-1.4s-0.8-1.1-1.1-1.2c-0.3-0.1-0.8 0.1-1.6 0.6L391.1 216c-0.8 0.5-1.2 0.8-1.2 1.1 0 0.2 0.2 0.7 0.6 1.3 0.4 0.6 0.7 1 0.9 1 0.2 0.1 0.7-0.1 1.4-0.5l20.2-11.7z m6.4 11c0.8-0.5 1.2-0.8 1.3-1.1 0.1-0.3 0-0.8-0.5-1.5-0.4-0.7-0.8-1.1-1.1-1-0.3 0.1-0.8 0.3-1.4 0.7L397.5 227c-0.7 0.4-1.1 0.8-1.1 1 0 0.2 0.1 0.7 0.5 1.3 0.4 0.6 0.7 1 0.9 1.1 0.2 0.1 0.7-0.1 1.5-0.5l20.1-11.7z" fill="#F8B739" p-id="1330"></path><path d="M489.2 438.8c-0.2-0.4-0.4-0.5-0.6-0.4-0.2 0.1-0.4 0.4-0.8 0.8-0.3 0.4-0.8 0.8-1.4 1.2-1.3 0.8-3.1 0.9-5.4 0.4-2.2-0.5-4-1.8-5.2-3.9-1.9-3.3-2.6-7.4-2.1-12.3 0.8-8.7-0.1-18.7-2.6-30-0.5-2.1-0.5-3.8 0-5.1 0.5-1.3 1.7-2.5 3.7-3.7 2-1.1 4.4-1.9 7.2-2.3 2.8-0.4 5.2 0.9 7 4.1 0.9 1.6 1.5 3.1 1.8 4.5 0.3 1.5-0.3 2.7-1.7 3.7-2.3 1.7-3.5 3.6-3.7 5.6-0.2 2.1 0.5 4.5 2.1 7.2s3 4.7 4.1 5.9c1.2 1.2 2.4 2 3.7 2.3 1 0.3 1.6 0.7 2 1.4l5.6 9.6c0.5 0.9 0.6 1.8 0.3 2.8-1 3.3-1.5 6.5-1.3 9.6 0.2 3 0.9 5.7 2.2 8 2.5 4.3 6.6 6.4 12.4 6.2 1.1-0.1 1.9 0.2 2.2 0.8 1.8 3.2 2.5 5.4 1.9 6.8-0.6 1.4-2.3 2.9-5.2 4.6-2.9 1.7-5.2 2.3-6.8 1.9-1.7-0.4-3.5-2.4-5.6-5.9l-13.8-23.8z m32.2-58.3l12.1-7c2.7-1.6 4.9-2.1 6.5-1.5 1.6 0.6 3.2 2.3 4.8 5.1 1.6 2.8 2.2 5 1.8 6.7-0.4 1.7-1.9 3.3-4.4 4.7l-7.6 4.4c-0.3 0.2-0.4 0.4-0.3 0.7 0.2 0.3 2.8 2.1 8 5.3 5.2 3.3 10.1 5.8 14.7 7.7 4.6 1.8 7.9 4.4 9.8 7.7 1.4 2.4 1.8 4.8 1.2 7.2-0.6 2.4-2 4.2-4.1 5.4-1.4 0.8-2.7 1.2-3.8 1.1-1.2-0.1-1.9-0.4-2.3-1.1-0.1-0.2-0.2-0.5-0.3-0.9-0.4-1.5-1.3-3.3-2.5-5.4-2.5-4.3-4.8-6.3-6.9-6.2-2.1 0.1-4.2 0.8-6.1 2-0.5 0.3-0.5 0.8-0.1 1.5s0.7 1.1 0.9 1.2c0.2 0.1 0.5 0.1 0.8-0.1 2.2-1.1 3.8-1.4 5-0.9 1.1 0.5 2.4 1.9 3.8 4.3s2 4.2 1.9 5.5c-0.1 1.3-1.1 2.6-3.1 3.9-0.6 0.4-0.7 0.9-0.4 1.4l1.6 2.7c1.5 2.6 2 4.8 1.4 6.5-0.6 1.7-2.3 3.4-5.1 5s-5.1 2.3-6.9 2c-1.7-0.3-3.4-1.8-4.9-4.5l-1.6-2.7c-0.2-0.4-0.4-0.6-0.6-0.6-0.2 0-0.4 0.1-0.7 0.2-2.9 1.7-4.9 2.3-6.2 1.9-1.2-0.4-2.6-1.9-4.1-4.5-1.5-2.6-2.1-4.5-1.9-5.8 0.2-1.3 1.8-2.8 4.7-4.5 0.5-0.3 0.6-0.7 0.3-1.2l-2.2-3.7c-0.1-0.2-0.2-0.3-0.4-0.2-0.1 0.1-0.2 0.3-0.3 0.8-0.5 1.8-1.4 3.2-2.9 4.3-1.5 1.1-2.4 2.3-2.7 3.4-0.3 1.1-0.3 2.4 0.2 3.8s1.4 3.2 2.7 5.4c1.3 2.2 1.9 4.1 1.7 5.4-0.2 1.4-1 2.5-2.5 3.3-1.5 0.9-3.7 1.2-6.7 1-3-0.2-5.4-1.7-7-4.5-2.1-3.6-2.5-8.1-1.1-13.4 1.1-4.3 1.8-9.3 2-15.1 0.2-5.8 0.2-8.9-0.1-9.3-0.1-0.2-0.4-0.2-0.8 0l-5.1 2.9c-2.4 1.4-4.4 1.9-6 1.5-1.6-0.4-3.2-2.2-5-5.2-1.8-3-2.4-5.3-2-6.9 0.4-1.6 1.8-3 4.2-4.5l11.1-6.5c0.3-0.2 0.5-0.4 0.6-0.5 0-0.1 0-0.4-0.2-0.7l-5-8.6c-1.5-2.6-2-4.7-1.3-6.3 0.6-1.6 2.4-3.3 5.2-4.9 2.9-1.7 5.1-2.3 6.9-2 1.7 0.3 3.3 1.7 4.8 4.3l4.9 8.5c0.6 0.7 1 0.8 1.6 0.5z" fill="#F8B739" p-id="1331"></path><path d="M661.2 558.6c-0.5-0.8-1.2-1.1-2.2-0.7-1.9 0.5-3.7 0.3-5.4-0.6-1.8-0.9-3.2-2.3-4.3-4.3-1.1-1.9-1.8-4.1-2.1-6.5-0.5-4.8-1.3-9.4-2.3-13.7-1-4.3-2.4-9.4-4.3-15.4-0.8-2.6-0.8-4.8 0-6.6 0.8-1.8 2.2-3.3 4.2-4.4 2-1.2 3.2-1.4 3.6-0.8 0.3 0.4 0.1 1.1-0.4 1.9-2.2 3.4-1.8 7.7 1.2 12.8 1.3 2.2 2.8 3.8 4.4 4.9 1.7 1 3.4 1.4 5.1 1.2 0.3 0 0.6 0.1 0.9 0.5 0.2 0.4 0.5 1.5 0.7 3.2 0.6 4.7 1.6 8.1 2.8 10.2 1.2 2.1 2.8 3.5 4.6 4.1 0.1 0 0.2 0.1 0.3 0.3 0.1 0.2 0.1 0.4 0 0.8-0.8 2.3-0.5 4.6 0.8 6.9 0.9 1.5 2.4 3.2 4.7 5.2 2.2 2 3.9 3.4 4.9 4.1 1 0.7 1.7 1.2 1.8 1.5 0.4 0.7 0.3 2.2-0.1 4.7-0.9 4.9-0.5 8.7 1.1 11.5 1.2 2 2.9 3.4 5.1 4.2 0.9 0.3 1.4 0.6 1.6 1 0.4 0.6-0.3 1.4-2 2.4-4.1 2.4-7.1 1.9-9-1.4l-15.7-27z m30.7-14.2c0.4 0.4 0.5 0.8 0.3 1.1-0.9 1.2-1.3 2.6-1.2 4.2 0 1.6 0.6 3.4 1.8 5.3 1.1 1.9 2.7 3.3 4.8 4 2.1 0.7 4.1 0.6 6-0.5l5.2-3c0.6-0.3 1.1-0.3 1.7 0.1 1.4 1 3.2 1.4 5.3 1.2 2.2-0.2 4.4-0.9 6.6-2.2 2.2-1.3 3.9-2.8 5.1-4.5 1.2-1.7 1.8-3.5 1.8-5.3 0-0.9 0.3-1.5 1-1.9l10.1-5.9c1.1-0.6 2.1-0.7 2.8-0.2 0.8 0.5 1.9 2 3.3 4.5 2.9 4.9 2.5 8.5-1.2 10.6l-25.2 14.6c-2.4 1.4-5.2 2.4-8.4 2.9-3.2 0.6-6.1 0.6-8.7 0-0.5-0.1-0.9 0-1.2 0.1-0.3 0.2-0.5 0.6-0.6 1.2-0.2 4.8-1.6 8.1-4.5 9.7-1.8 1.1-4.1 1.3-6.8 0.8-2.7-0.6-4.7-1.8-5.7-3.7-1.5-2.6-1.6-6.8-0.4-12.7 0.3-1.5 0.3-2.5 0.1-3-0.3-0.5-0.7-0.9-1.3-1.3-3.1-2.2-5.6-4.2-7.4-5.9-1.8-1.7-2.9-3-3.3-3.7-1.2-2-1.2-4.2-0.1-6.3 1.1-2.2 2.5-3.7 4.2-4.7 2.2-1.3 4.3-1.1 6.4 0.4 0.5 0.3 0.8 0.4 1 0.3 0.2-0.1 0.5-0.4 0.9-1 0.4-0.5 0.5-1 0.3-1.4-0.5-0.8-1.7-1.5-3.7-2.2-2-0.7-4.2-0.4-6.4 1-1.4 0.8-2.5 1.7-3.1 2.6-0.6 0.9-1.1 1.4-1.5 1.6-1.3 0.7-2.5 0.1-3.7-2-1-1.7-1.8-4.1-2.3-7.1-0.9-5.7-1.6-8.8-1.9-9.4-0.4-0.6-0.8-0.8-1.4-0.4-3.3 1.9-6.2 0.5-8.9-4.1-1.4-2.5-2.1-4.7-1.9-6.6 0.2-1.9 1.1-3.4 2.8-4.4l12.1-7c1.1-0.6 1.8-0.5 2.3 0.2 0.2 0.3 0.2 0.6 0.2 1.1 0 2 0.5 3.9 1.5 5.6s1.7 2.8 2.2 3.3c0.5 0.5 0.8 0.8 0.9 1 0.1 0.2 0.1 0.4-0.1 0.6-2 1.7-1.7 4.8 0.9 9.2 1.4 2.5 2.9 4.2 4.3 5.2s2.6 1.2 3.7 0.7c0.5-0.3 0.8-0.2 1 0.4 0.1 0.6 0.5 1.3 1 2.1 0.5 0.9 1.2 1.7 2.1 2.6 0.9 0.9 1.6 1.4 2.1 1.5 0.5 0.1 0.8 0.3 0.9 0.4 0.1 0.2 0.1 0.5-0.1 1.1-0.2 0.6-0.1 1.4 0.1 2.4s0.7 2.2 1.5 3.5c0.8 1.7 1.7 2.7 2.7 3.3z m7.7-62c2.2-1.3 4.2-1.5 5.9-0.6 1.7 0.9 3.5 3 5.4 6.3 0.5 0.8 1.1 1.1 1.8 1 2.4-0.3 4.7 1.4 6.9 5.2 2.2 3.7 2.5 6.7 1 8.7-0.2 0.3-0.3 0.5-0.4 0.7 0 0.2 0.1 0.6 0.4 1.1 1.2 2.1 1.6 3.9 1.3 5.7-0.3 1.7-1.2 3-2.8 3.9l-6.4 3.7c-0.6 0.3-0.8 0.6-0.9 0.8 0 0.2 0.1 0.6 0.5 1.2 0.3 0.6 0.6 0.9 0.9 1 0.2 0.1 0.6 0 1.1-0.3l8.1-4.7c1.1-0.6 2.3-0.8 3.4-0.5 1.2 0.3 2.1 1.1 2.9 2.3 0.7 1.2 1 2.5 0.7 3.7-0.3 1.2-1 2.1-2.2 2.8l-8.2 4.8c-0.4 0.3-0.7 0.5-0.7 0.7 0 0.2 0.1 0.6 0.4 1.1 0.3 0.5 0.6 0.8 0.8 0.9 0.2 0.1 0.5 0 0.9-0.2l10.3-6c1.2-0.7 2.3-0.8 3.6-0.4 1.2 0.4 2.2 1.4 3.1 2.9 0.9 1.5 1.2 2.9 1 4.3-0.2 1.3-0.9 2.3-2 3l-9.8 5.7c-0.6 0.4-1 0.6-1.1 0.8-0.1 0.2-0.1 0.5 0.1 0.8 0.8 1.3 0.7 2.8-0.2 4.5-0.9 1.7-2.5 3.1-4.7 4.4-2.2 1.3-4.2 1.9-6 1.9-1.8 0-3.1-0.7-3.9-2-0.2-0.4-0.4-0.6-0.6-0.6-0.2 0-0.5 0.1-0.9 0.3l-7.6 4.4c-1.1 0.6-2.3 0.7-3.5 0.2-1.2-0.5-2.3-1.5-3.1-3-0.9-1.5-1.2-2.9-1-4.1 0.2-1.2 0.9-2.2 2-2.8l7.4-4.3c0.6-0.3 0.8-0.6 0.9-0.8 0-0.2-0.1-0.6-0.4-1.1-0.3-0.5-0.6-0.8-0.7-0.9-0.2-0.1-0.5 0-1 0.3l-4.6 2.7c-1 0.6-2 0.7-3.1 0.3-1.1-0.4-2-1.2-2.8-2.5-0.8-1.3-1-2.5-0.8-3.6 0.2-1.1 0.9-1.9 1.9-2.6l4.8-2.8c0.4-0.2 0.6-0.5 0.6-0.7 0-0.2-0.1-0.6-0.5-1.2s-0.6-0.9-0.8-1.1c-0.2-0.1-0.5-0.1-1 0.2l-4.2 2.5c-1.2 0.7-2.3 0.8-3.5 0.5-1.1-0.4-2.1-1.3-3-2.7-0.8-1.4-1.1-2.8-0.9-4.1 0.3-1.3 0.9-2.2 2-2.9l4.3-2.5c0.4-0.2 0.6-0.5 0.6-0.7 0-0.2-0.2-0.6-0.5-1.3-0.4-0.6-0.6-1-0.8-1.1-0.2-0.1-0.4 0-0.7 0.2l-4.7 2.8c-0.7 0.4-1.4 1.1-2.1 1.9-0.7 0.9-1.1 1.8-1.3 2.7 0 0.3-0.3 0.6-0.7 0.8-0.4 0.2-1.1 0-2.1-0.7s-1.9-1.9-2.8-3.5c-0.9-1.6-1.4-2.9-1.5-4-0.1-1.1 0.1-1.7 0.6-2 0.5-0.3 1.1-0.4 1.8-0.3 1.3 0.3 2.7 0 4-0.8l5.1-2.9c0.4-0.3 0.6-0.5 0.6-0.8 0-0.3-0.2-0.7-0.5-1.2s-0.5-0.8-0.7-1c-0.2-0.1-0.5 0-0.9 0.2l-4.7 2.7c-1.2 0.7-2.5 0.8-3.8 0.2-1.3-0.6-2.5-1.8-3.6-3.7-1.1-1.9-1.5-3.5-1.4-5 0.2-1.5 0.8-2.6 1.9-3.2l3.1-1.8c0.5-0.3 0.8-0.5 0.8-0.7 0.1-0.1 0-0.4-0.2-0.7-1-1.7-1.1-3.3-0.3-4.8s2.6-3.1 5.5-4.7c2.9-1.7 5.1-2.5 6.8-2.4 1.7 0 3 0.9 4 2.7 0.2 0.3 0.4 0.5 0.5 0.5 0.2 0 0.4-0.1 0.8-0.3l6.1-3.4z m0.6 17.9c1.1-0.6 1.6-1.1 1.7-1.4 0.1-0.3-0.1-0.9-0.6-1.7-0.5-0.8-0.8-1.2-1.1-1.3-0.2 0-0.9 0.2-1.8 0.8-1 0.6-1.5 1-1.6 1.3-0.1 0.3 0 0.8 0.5 1.6s0.8 1.2 1.1 1.3c0.3 0.1 0.9-0.1 1.8-0.6z m6.1 10.5c1.1-0.6 1.6-1.1 1.7-1.4 0.1-0.3-0.1-0.9-0.6-1.7-0.5-0.9-0.9-1.3-1.1-1.4-0.2 0-0.9 0.2-1.8 0.8-1 0.6-1.5 1-1.6 1.3-0.1 0.3 0.1 0.9 0.5 1.7 0.5 0.8 0.9 1.3 1.2 1.4 0.2 0.1 0.8-0.1 1.7-0.7z" fill="#F8B739" p-id="1332"></path><path d="M771.6 678.8c2.9-1.7 5.4-2.2 7.3-1.6 1.9 0.6 3.6 2.2 5.1 4.8 1.5 2.6 2.3 4.7 2.4 6.2 0.1 1.6-0.2 2.6-1 3-0.8 0.5-1.6 0.6-2.5 0.3-2.7-0.7-6.2 0.1-10.3 2.5l-5.8 3.4c-1.3 0.8-2.7 0.9-4 0.4-2.9-0.9-6.6-0.1-11 2.5-2.2 1.3-4 2.6-5.2 4-1.3 1.4-2.2 3.1-2.7 5.1-0.3 1.1-1 1.9-2.2 2.6l-7 4.1c-1.6 0.9-2.8 2-3.7 3.1-0.8 1.1-1.3 2.4-1.3 3.7 0 1.4 0.2 2.6 0.6 3.5 0.4 1 1.2 2.5 2.4 4.5 0.5 0.8 0.5 1.6-0.1 2.4-0.8 1.1-1 2.2-0.8 3.4 0.2 1.2 0.9 2.6 1.9 4.4 1 1.7 2.1 3.1 3.4 4.1 1.2 1 2.4 1.4 3.4 1.3 1-0.1 1.6 0 1.9 0.5 0.3 0.4 0.5 1.1 0.8 1.9 0.3 0.8 0.7 1.7 1.3 2.7 1.5 2.6 3.5 4.2 6 4.8 0.9 0.2 1.5 0.7 1.8 1.3 0.4 0.6 0.2 1.6-0.6 2.9-1.4 2.5-2.3 4.8-2.5 6.8-0.3 2 0.1 4 1.3 5.9 1.1 1.9 3.2 3.6 6.4 5 1.1 0.5 1.9 1.2 2.3 1.9 1.1 1.8-0.1 3.7-3.4 5.6-2.1 1.2-4.5 2.1-7.4 2.8-2.9 0.7-5.1-0.4-6.8-3.3-1-1.7-2.2-5-3.7-9.9s-3.9-10.7-7.2-17.6c-3.4-6.9-9.2-17.5-17.6-31.9-2.2-3.7-2.7-6.8-1.7-9.3 1-2.5 3.7-5 8.1-7.6l13.1-7.6c0.4-0.3 0.7-0.5 0.8-0.6 0.1-0.2 0-0.4-0.2-0.7-0.7-1.2-0.1-2.8 1.7-4.8 1.8-2.1 4.2-4 7.3-5.7 3-1.8 5.4-2.7 7-2.9 1.6-0.1 3 0.5 4.1 1.9 0.3 0.4 0.9 0.4 1.6-0.1l16.7-9.7z m3.5 17.6c2.5-1.5 4.9-2 7-1.6 2.2 0.4 3.9 1.7 5.2 3.9 0.3 0.6 0.6 0.9 0.8 1.1 0.2 0.2 0.7 0.1 1.3-0.3 1.2-0.7 2.4-0.6 3.8 0.2 1.3 0.8 2.6 2.2 3.9 4.4 1.2 2.1 1.9 4 1.9 5.7 0 1.7-0.5 2.9-1.6 3.5-0.8 0.5-0.9 1.2-0.3 2.2 0.9 1.5 0.9 2.5 0 3-0.5 0.3-1.3 0.4-2.5 0.5-2.3-0.1-4.3 0.4-6 1.4-1.7 1-3.1 3.5-4.2 7.5s-1.6 6.2-1.3 6.6c0.2 0.4 0.7 0.6 1.4 0.7 0.7 0.1 1.2 0 1.4-0.1 0.2-0.1 0.3-0.4 0.4-0.8 0.5-3.3 1.1-5.9 1.9-7.7s1.8-3 3-3.8c1.3-0.7 3.2-1 5.8-0.7 2.6 0.3 4.4 1.2 5.3 2.9 0.9 1.6 0.9 4.4 0 8.4-0.2 0.6-0.2 1.1 0 1.3 0.2 0.3 0.9 0.3 2.2 0 6.1-1 9.9-0.2 11.4 2.4 0.9 1.5 1.2 3.7 1 6.6-0.2 2.9-1.4 5-3.6 6.2-2.2 1.3-5.4 1.8-9.5 1.7-4.2-0.2-7.3-0.5-9.4-1.1s-3.2-0.8-3.4-0.7c-0.2 0.1 0 0.5 0.4 1.2l2.4 4.1c1.4 2.4 1.8 4.3 1.4 5.9-0.5 1.5-1.9 3-4.2 4.3l-6.6 3.8c-2.4 1.4-4.6 2.2-6.5 2.3-1.9 0.1-3-0.2-3.5-0.9-0.4-0.7 0-1.9 1.4-3.6 0.6-0.7 1.2-1.7 1.8-2.9 0.6-1.2 0.9-1.9 0.7-2.1-0.1-0.2-0.5-0.5-1.2-0.8-0.6-0.3-1.1-0.4-1.3-0.3-0.2 0.1-0.4 0.4-0.6 0.7-1.8 2.9-3.8 5.8-6.1 8.6s-4 4.6-5.1 5.2c-1.7 1-3.6 1-5.9 0.1-2.2-0.9-3.9-2.3-5-4.1-1.1-1.8-1-4 0.2-6.6 1.2-2.6 2.2-4.1 3.1-4.6 0.8-0.5 2.2-0.3 4 0.6 2.7 1.4 5.1 1.5 7.3 0.2 2.1-1.2 3.7-3.4 4.9-6.5 1.1-3.1 1.1-5.7-0.1-7.7-1.2-2-3.9-3.8-8.1-5.3-4.2-1.5-7.5-1.5-10-0.1-1.2 0.7-2.2 1.7-3.1 2.9-0.9 1.3-1.5 2.6-1.8 3.9-0.3 1.3-0.7 2.1-1 2.3-0.3 0.2-1-0.5-1.9-2.1-0.9-1.6-1.1-3.1-0.5-4.4 0.6-1.4 2-2.7 4.3-4l9.6-5.6c0.6-0.3 0.6-0.8 0.2-1.5-0.4-0.7-0.7-1.1-1-1.3-0.2-0.2-0.6-0.1-1 0.1l-8.6 5c-1.5 0.9-2.9 1.8-4.1 2.8-1.2 1-1.9 1.7-2.2 2.3-0.2 0.5-0.7 1-1.3 1.4-0.6 0.4-1.5 0.2-2.6-0.4-1.1-0.6-2.1-1.7-3-3.3-0.9-1.5-1.2-2.7-1-3.5 0.2-0.8 0.9-1.5 2-2.1 1.1-0.6 2.9-1.4 5.5-2.3 2.5-0.9 5.2-2.2 7.9-3.8 2.7-1.6 4.2-2.5 4.4-2.7 0.2-0.2 0.1-0.7-0.3-1.3-0.4-0.7-0.7-1-1-1.1-0.3-0.1-0.6 0-1.1 0.2-3.4 1.8-6.5 3.3-9.4 4.7-2.8 1.3-4.6 2.1-5.3 2.3-0.7 0.2-1.4 0.2-1.9-0.2-0.6-0.3-1.3-1.2-2.2-2.8-0.9-1.6-1.2-3-0.8-4.4 0.3-1.4 1.5-2.7 3.6-3.9l10.1-5.8c0.5-0.3 0.6-0.7 0.3-1.2-0.7-1.2-0.5-2.5 0.6-4s2.9-3 5.6-4.5c2.6-1.5 4.9-2.4 6.7-2.5 1.8-0.1 3.1 0.4 3.8 1.5 0.2 0.4 0.7 0.4 1.5-0.1l9.7-5.5z m-8.7 61.6c-1.4 0.8-3 0.8-4.8-0.2-1.8-0.9-3.6-1.6-5.2-2.2-1.6-0.5-2.8-1.3-3.4-2.5-0.8-1.4-0.9-3.1-0.1-5 0.7-1.9 1.8-3.3 3.1-4 1.8-1.1 4.4-1 7.6 0.3 3.2 1.2 5.3 2.6 6.1 4 0.8 1.4 0.8 3.2 0 5.3-0.8 2.1-1.9 3.5-3.3 4.3z m8.9-44.1c0.8-0.5 0.9-1.2 0.2-2.3-0.6-1.1-1.3-1.4-2.1-0.9l-3.2 1.8c-0.8 0.5-0.9 1.3-0.3 2.3 0.6 1.1 1.3 1.3 2.2 0.9l3.2-1.8z m5.6 9.7c0.8-0.5 0.9-1.2 0.2-2.3-0.6-1.1-1.3-1.4-2.1-0.9l-3.2 1.8c-0.5 0.3-0.8 0.6-0.9 0.8-0.1 0.3 0.1 0.7 0.5 1.4 0.4 0.6 0.7 1 1 1.2 0.3 0.2 0.7 0.1 1.3-0.2l3.2-1.8z" fill="#F8B739" p-id="1333"></path></svg>